<svg width="1200" height="1200" xmlns="http://www.w3.org/2000/svg" xmlns:xlink="http://www.w3.org/1999/xlink" version="1.1"><g transform="scale(11.489718868363285) translate(2.226196924845379, 2.2467724482218427)">                        <g fill="#ffffff"> <path xmlns="http://www.w3.org/2000/svg" d="m55 15.281c-1.7383 0.69922-3.4688 1.4219-5.1992 2.1406-1.9375-1.3164-3.9414-2.5312-6-3.6406-3.4141-1.8945-7.0781-3.3047-10.879-4.1797-1.9688-0.45703-3.9922-0.59375-6-0.40234-2.1406 0.16016-4.1523 1.0742-5.6836 2.582-0.82812 0.92188-1.4375 2.0234-1.7773 3.2188-1.9219 2.4453-3.1602 5.3594-3.5898 8.4414-0.28516 2.1875-0.17188 4.4102 0.33984 6.5586 0.12109 0.54297 0.26953 1.0742 0.44922 1.6016l0.53906 1.5c0.37891 1 0.76953 2 1.1797 2.9492 1.6641 3.9102 3.6953 7.6523 6.0703 11.18 2.3984 3.5195 5.1172 6.8125 8.1211 9.8281 1.332 1.3008 2.6992 2.543 4.1016 3.7305-0.51953 2.9219-0.82812 5.8398-1.0781 8.75-0.25 2.9102-0.35156 5.9297-0.39844 8.8984-0.75 0-1.5117 0.058594-2.2695 0.10938l-2.4219 0.14844-0.003906 0.003907c-0.96875 0.0625-1.9258 0.26562-2.8398 0.60156-1.793 0.70703-3.2891 2.0156-4.2305 3.6992-0.45703 0.77734-0.76953 1.6289-0.91797 2.5195-0.078125 0.43359-0.11328 0.87109-0.10156 1.3086v0.28906l-0.19922 0.058593v0.003907c-1.125 0.42969-2.1367 1.1133-2.9492 2-0.78125 0.80078-1.375 1.7617-1.7422 2.8203-0.16797 0.53125-0.27734 1.0781-0.32812 1.6289v0.80859 0.77734c0.089844 0.089844-0.19141-0.17969 0.19922 0.21875v0.007812c4.0586 0.67188 8.1562 1.1094 12.27 1.2969 2.0508 0.12109 4.0898 0.17969 6.1406 0.21094s4.1992 0.050781 6.1992-0.078125c4.0898-0.25 8.1797-0.87109 12.27-1 2-0.058594 4.0898 0 6.1406 0l1.5312 0.058594h0.51172c1.5-1.5 0.41016-0.42969 0.75-0.76953l-0.003906-0.16016c0.019531-0.28125 0.019531-0.56641 0-0.85156-0.10156-1.1602-0.44141-2.2852-1-3.3086-0.94531-1.7617-2.5-3.125-4.3711-3.8398-0.015625-0.33594-0.054687-0.66797-0.11719-1-0.15625-0.89844-0.44922-1.7695-0.87109-2.5781-0.86328-1.7031-2.2734-3.0703-4-3.8828-0.89062-0.42969-1.8555-0.69141-2.8398-0.77734-0.53125-0.058594-0.87109-0.058594-1.2891-0.078125l-1.2109-0.058594-2.8906-0.12109c-0.10156-2.25-0.23828-4.5-0.46094-6.75-0.17188-1.4492-0.30078-2.8984-0.53125-4.3516-0.070313-0.53906-0.16016-1.0703-0.25-1.6016h0.003906c3.25 2.1211 6.6797 3.9531 10.25 5.4805 1 0.41016 2 0.80078 2.9492 1.1797 1.0117 0.40234 2.0508 0.73437 3.1094 1 2.1523 0.50781 4.3789 0.62109 6.5703 0.32812 3.0859-0.42187 6-1.6562 8.4492-3.5781 1.1992-0.33984 2.3008-0.95313 3.2227-1.7891 1.5039-1.5234 2.4219-3.5352 2.5781-5.6719 0.1875-2.0078 0.050781-4.0352-0.39844-6-0.89844-3.793-2.3164-7.4453-4.2109-10.852-1.0898-2.0234-2.2812-3.9922-3.5703-5.8984 0.53125-2.1602 1.0508-4.3086 1.5508-6.4688 1-4.0586 1.8281-8.1406 2.7305-12.211 0.51953-2.5898 1.0586-5.1719 1.5898-7.7617v0.050781c0.56641 0.51172 1.1719 0.97656 1.8086 1.3906 0.35547 0.23438 0.73828 0.42969 1.1406 0.57812 0.28516 0.10938 0.58594 0.17578 0.89062 0.19141 0.58984 0.046875 1.1719-0.15234 1.6094-0.55078 0.41016-0.43359 0.63672-1.0117 0.62891-1.6094 0-0.3125-0.046875-0.625-0.12891-0.92969-0.11719-0.42578-0.26953-0.84375-0.44922-1.25-0.31641-0.6875-0.67969-1.3555-1.082-2-0.76953-1.2188-1.7188-2.3164-2.8203-3.25-1.1172-0.95313-2.4023-1.6914-3.7891-2.1797-0.69141-0.25-1.3789-0.48828-2.0781-0.69141-0.33984-0.10156-0.69141-0.19922-1-0.26953-0.40625-0.12891-0.84766-0.058593-1.1914 0.19141-0.21875 0.34766-0.23828 0.78125-0.058594 1.1484 0.10547 0.34375 0.23828 0.67969 0.39844 1 0.28906 0.62109 0.60938 1.2188 0.94141 1.8281 0.16016 0.30078 0.33984 0.58984 0.51172 0.87891-2.6133 0.91406-5.2227 1.9141-7.8047 2.9141-3.5977 1.4102-7.1992 2.8008-10.719 4.2812zm5.4219 76.719c0.55469 0.69922 0.94141 1.5156 1.1289 2.3906 0.003907 0.070313 0.003907 0.14062 0 0.21094h-1.1797c-2 0.070313-4.0898 0.10156-6.1406 0-4.0898-0.10937-8.1797-0.73828-12.27-1-2-0.12109-4.0898-0.17187-6.1406-0.10937-2.0508 0.058593-4.0898 0.10156-6.1406 0.21875-4.0195 0.1875-8.0273 0.60937-12 1.2578v-0.14062l0.078124-0.35938 0.23047-0.69922c0.17578-0.44531 0.39453-0.875 0.65234-1.2812 0.48828-0.78516 1.1289-1.4688 1.8906-2 0.71484-0.49219 1.5234-0.83203 2.3789-1 0.88672-0.12109 1.7852-0.12109 2.668 0 4.0898 0.30078 8.1914 0.46875 12.281 0.55078 4.0898 0.078126 8.1797-0.078124 12.27-0.23828l3.0703-0.12109c1 0 2.1406-0.12109 2.8398-0.089844 1.7422 0.12891 3.3398 1.0078 4.3828 2.4102zm-10.613-9.8281c0.64062-0.019531 1.2773 0.058594 1.8906 0.22656 1.3164 0.34766 2.4922 1.0898 3.3711 2.1328 0.46094 0.54688 0.82031 1.1719 1.0586 1.8477l0.058594 0.19922c-1.1406-0.17969-2-0.14062-2.9492-0.21094l-3.0703-0.12109c-4.0898-0.15625-8.168-0.24609-12.27-0.24609-4.1016 0-8.1914 0.23828-12.281 0.53906h0.003906c-0.78125 0.027344-1.5586 0.12109-2.3203 0.28125 0.11328-0.34375 0.25391-0.67578 0.41797-1 0.34375-0.62109 0.77344-1.1875 1.2812-1.6797 0.96094-0.96875 2.1914-1.6289 3.5312-1.9023 0.64062-0.11328 1.2969-0.13672 1.9492-0.066406l2.4219 0.14844c1.6211 0.10156 3.2383 0.14844 4.8516 0.19141 3.2305 0.058593 6.4688-0.10156 9.6992-0.23828zm-10.809-3.793c-0.050781-2.9297-0.16016-5.8711-0.39062-8.8086-0.23047-2.6484-0.51172-5.3008-0.94141-7.9492 1.5391 1.2617 3.1289 2.4609 4.7812 3.5781-0.12891 0.73047-0.25 1.4609-0.35156 2.1992-0.21875 1.4492-0.35938 2.8984-0.51953 4.3516-0.23047 2.2188-0.35938 4.4297-0.46094 6.6484-0.75781-0.019532-1.457-0.019532-2.1172-0.019532zm34-30.848c1.9141 3.0742 3.4141 6.3906 4.4609 9.8594 0.49609 1.6719 0.73828 3.4141 0.71094 5.1602 0.074219 1.6797-0.53125 3.3203-1.6836 4.5508-1.1484 1.2305-2.7461 1.9414-4.4297 1.9766-1.8008 0.17188-3.6172 0.054687-5.3789-0.34766-3.6211-0.85156-7.1055-2.1953-10.359-4-5.6875-3.1211-10.953-6.9648-15.66-11.43 2 1.8906 4 3.7305 6.1719 5.4414l-0.003906-0.003907c2.918 2.375 6.0039 4.5352 9.2305 6.4609 3.2305 2 6.7109 3.5625 10.352 4.6523 1.8711 0.55078 3.8203 0.80469 5.7695 0.75781h0.19141c-2 0.83203-4.1367 1.2773-6.3008 1.3125-1.9531 0.035156-3.8984-0.27344-5.7422-0.92188-1.8672-0.71484-3.6953-1.5391-5.4688-2.4688-7.2266-3.6562-13.828-8.4375-19.559-14.16-2.8789-2.8359-5.5039-5.9141-7.8516-9.1992-2.3789-3.2852-4.5-6.75-6.3398-10.363-0.93359-1.7734-1.7578-3.6016-2.4688-5.4805-0.63281-1.8398-0.93359-3.7812-0.87891-5.7266 0.042969-2.1562 0.48438-4.2891 1.3086-6.2812v0.17188-0.003907c-0.046874 1.9531 0.20703 3.8984 0.75781 5.7734 1.0898 3.6406 2.6523 7.125 4.6523 10.359 1.9297 3.2266 4.0938 6.3125 6.4688 9.2305 1.6992 2.1484 3.5312 4.1484 5.4297 6.1484-4.4648-4.707-8.3086-9.9648-11.438-15.648-1.7852-3.2539-3.1094-6.7383-3.9414-10.352-0.40234-1.7617-0.52344-3.5781-0.35156-5.3789 0.12109-1.6758 0.82812-3.2578 2-4.4609 1.2578-1.0625 2.8555-1.6406 4.5-1.6289 1.7461-0.03125 3.4883 0.20703 5.1602 0.70703 3.4688 1.043 6.7852 2.5391 9.8633 4.4531 1.2695 0.75 2.5117 1.5586 3.7305 2.3984l-1.6016 0.67969c-3.5391 1.5586-7.0781 3.1211-10.57 4.8203 3.7695-0.94141 7.4805-2 11.191-3.1094l3-0.92969c1.0781 0.80078 2.1406 1.6094 3.1914 2.4414 1.8008 1.4297 3.5312 2.9492 5.2188 4.5117-2.4297 2.5508-4.8008 5.1484-7.0586 7.8594l-0.003907-0.003906c-2.6875 3.125-5.1758 6.4141-7.4492 9.8516 3.3555-2.3945 6.5664-4.9883 9.6094-7.7695 2.6406-2.3398 5.1602-4.8008 7.6289-7.3086l0.23828 0.23047 0.003906-0.003906c2.6133 2.5898 5.0781 5.3242 7.3789 8.1914 0.94141 1.1797 1.8516 2.3789 2.7383 3.6016-0.16016 1.0703-0.32031 2.1406-0.46875 3.2188-0.53906 4.1406-1.1016 8.2812-1.4688 12.461 1.25-4 2.3086-8 3.3906-12.09 0.089844-0.37109 0.17969-0.73828 0.28125-1.1094 0.64844 0.94531 1.2695 1.9062 1.8477 2.8984zm-0.60938-42.359c-0.16016-0.28125-0.29297-0.57422-0.39062-0.88281-0.089844-0.30078-0.10938-0.64844 0-0.78125v0.003907c0.25-0.078125 0.51953-0.039063 0.73828 0.097656 0.28516 0.14844 0.54688 0.33203 0.78125 0.55078 0.48438 0.45312 0.91406 0.95703 1.2812 1.5117 0.76953 1.1016 1.4609 2.2188 2.2891 3.1797 0.64844 0.78906 1.3203 1.5312 2 2.2695-0.82812-0.57031-1.6406-1.1719-2.4297-1.8281-1-0.85156-2.0508-1.6602-3-2.5898v-0.003906c-0.48438-0.45703-0.91016-0.96875-1.2695-1.5273zm9.6602 7.5508h0.089844c0.078125 0.015625-0.03125-0.003906-0.089844-0.003906zm-9.0508 7.918c-0.71875 4.1094-1.4688 8.2109-2.1211 12.328-0.23047 1.3711-0.44141 2.7305-0.64844 4.0898-2.5234-3.3242-5.2734-6.4766-8.2305-9.4297l-0.28125-0.26953c2.3203-2.4492 4.5898-4.9414 6.7617-7.5391 2.1719-2.6016 4.1992-5.1406 6.1211-7.8906-0.53125 2.9102-1.0703 5.8086-1.6016 8.7109zm-0.21094-8.2891c-2.2188 1.7109-4.3398 3.5195-6.3984 5.3789-2.5391 2.2617-5 4.6211-7.3594 7-2.1484-1.9609-4.3945-3.8125-6.7383-5.5586 1.2305-0.37891 2.4688-0.76953 3.6992-1.1719 3.6797-1.1602 7.3281-2.4219 11-3.6602 1.8984-0.62109 3.8359-1.3398 5.7695-1.9883z"/></g>        </g></svg>